<?xml version="1.0" encoding="UTF-8"?>
<svg xmlns="http://www.w3.org/2000/svg" xmlns:xlink="http://www.w3.org/1999/xlink" width="256pt" height="256pt" viewBox="0 0 256 256" version="1.1">
<g id="surface1">
<path style=" stroke:none;fill-rule:nonzero;fill:rgb(93.72549%,78.823529%,51.764706%);fill-opacity:1;" d="M 210.496094 55.992188 C 210.496094 51.53125 206.878906 47.914062 202.417969 47.914062 L 174.578125 47.914062 C 164.308594 47.914062 155.984375 56.238281 155.984375 66.507812 L 155.984375 87.152344 L 221.578125 87.152344 L 221.578125 66.800781 C 221.578125 62.335938 217.960938 58.71875 213.5 58.71875 L 213.226562 58.71875 C 211.71875 58.71875 210.496094 57.5 210.496094 55.992188 Z M 210.496094 55.992188 "/>
<path style=" stroke:none;fill-rule:nonzero;fill:rgb(29.019608%,50.196078%,66.666667%);fill-opacity:1;" d="M 236.175781 144.859375 L 209.59375 137.054688 L 167.988281 137.054688 L 141.398438 144.859375 C 131.867188 147.65625 125.320312 156.402344 125.320312 166.332031 L 125.320312 208.808594 L 252.25 208.808594 L 252.25 166.332031 C 252.25 156.402344 245.703125 147.65625 236.175781 144.859375 Z M 236.175781 144.859375 "/>
<path style=" stroke:none;fill-rule:nonzero;fill:rgb(25.098039%,43.921569%,57.647059%);fill-opacity:1;" d="M 236.175781 144.859375 L 209.59375 137.054688 L 178.132812 137.054688 L 178.109375 144.714844 L 204.6875 152.515625 C 214.21875 155.316406 220.765625 164.058594 220.765625 173.992188 L 220.765625 208.808594 L 252.25 208.808594 L 252.25 166.332031 C 252.25 156.402344 245.703125 147.65625 236.175781 144.859375 Z M 236.175781 144.859375 "/>
<path style=" stroke:none;fill-rule:nonzero;fill:rgb(86.666667%,38.823529%,43.137255%);fill-opacity:1;" d="M 203.824219 208.808594 L 194.058594 165.265625 L 183.480469 165.265625 L 173.714844 208.808594 Z M 203.824219 208.808594 "/>
<path style=" stroke:none;fill-rule:nonzero;fill:rgb(100%,86.666667%,80.784314%);fill-opacity:1;" d="M 203.382812 144.398438 L 203.382812 120.925781 L 174.175781 120.925781 L 174.175781 144.398438 C 174.175781 152.464844 188.78125 153.179688 188.78125 153.179688 C 188.78125 153.179688 203.382812 152.464844 203.382812 144.398438 Z M 203.382812 144.398438 "/>
<path style=" stroke:none;fill-rule:nonzero;fill:rgb(100%,86.666667%,80.784314%);fill-opacity:1;" d="M 221.578125 84.441406 L 215.996094 84.441406 C 212.890625 84.441406 210.371094 81.925781 210.371094 78.820312 L 210.371094 75.742188 C 210.371094 71.699219 206.414062 68.839844 202.574219 70.109375 C 193.621094 73.070312 183.949219 73.070312 174.992188 70.109375 L 174.984375 70.105469 C 171.140625 68.839844 167.1875 71.699219 167.1875 75.742188 L 167.1875 78.820312 C 167.1875 81.925781 164.667969 84.441406 161.566406 84.441406 L 155.980469 84.441406 L 155.980469 93.636719 C 155.980469 95.984375 157.886719 97.886719 160.234375 97.886719 C 160.976562 97.886719 161.578125 98.46875 161.625 99.210938 C 162.523438 113.429688 174.332031 124.6875 188.78125 124.6875 C 203.226562 124.6875 215.035156 113.429688 215.933594 99.210938 C 215.980469 98.46875 216.582031 97.886719 217.324219 97.886719 C 219.671875 97.886719 221.578125 95.984375 221.578125 93.636719 Z M 221.578125 84.441406 "/>
<path style=" stroke:none;fill-rule:nonzero;fill:rgb(91.764706%,73.72549%,41.960784%);fill-opacity:1;" d="M 213.496094 58.71875 L 213.226562 58.71875 C 211.71875 58.71875 210.496094 57.5 210.496094 55.992188 C 210.496094 51.527344 206.878906 47.910156 202.417969 47.910156 L 189.945312 47.910156 L 189.945312 87.152344 L 221.578125 87.152344 L 221.578125 66.800781 C 221.578125 62.335938 217.960938 58.71875 213.496094 58.71875 Z M 213.496094 58.71875 "/>
<path style=" stroke:none;fill-rule:nonzero;fill:rgb(100%,79.607843%,74.509804%);fill-opacity:1;" d="M 215.996094 84.441406 C 212.890625 84.441406 210.371094 81.925781 210.371094 78.820312 L 210.371094 75.742188 C 210.371094 71.699219 206.414062 68.839844 202.574219 70.109375 C 198.46875 71.464844 194.214844 72.195312 189.945312 72.304688 L 189.945312 102.390625 C 189.945312 104.40625 189.765625 106.421875 189.320312 108.386719 C 187.964844 114.324219 184.667969 119.519531 180.132812 123.277344 C 182.851562 124.1875 185.753906 124.6875 188.78125 124.6875 C 203.226562 124.6875 215.035156 113.429688 215.933594 99.210938 C 215.980469 98.46875 216.582031 97.886719 217.324219 97.886719 C 219.671875 97.886719 221.578125 95.984375 221.578125 93.636719 L 221.578125 84.441406 Z M 215.996094 84.441406 "/>
<path style=" stroke:none;fill-rule:nonzero;fill:rgb(21.176471%,36.862745%,49.019608%);fill-opacity:1;" d="M 168.484375 135.5 L 164.324219 137.367188 C 161.949219 138.429688 161.378906 141.542969 163.214844 143.386719 L 174.734375 154.921875 C 176.195312 156.34375 178.496094 156.429688 180.058594 155.125 L 189.089844 147.578125 L 173.695312 136.074219 C 172.191406 134.949219 170.195312 134.730469 168.484375 135.5 Z M 168.484375 135.5 "/>
<path style=" stroke:none;fill-rule:nonzero;fill:rgb(21.176471%,36.862745%,49.019608%);fill-opacity:1;" d="M 203.859375 136.144531 L 189.089844 147.578125 L 197.582031 154.835938 C 199.136719 156.167969 201.445312 156.101562 202.921875 154.683594 L 214.445312 143.460938 C 216.328125 141.628906 215.765625 138.46875 213.363281 137.402344 L 209.125 135.511719 C 207.386719 134.738281 205.363281 134.980469 203.859375 136.144531 Z M 203.859375 136.144531 "/>
<path style=" stroke:none;fill-rule:nonzero;fill:rgb(86.666667%,71.764706%,62.745098%);fill-opacity:1;" d="M 241.867188 252.015625 L 62.832031 252.015625 L 62.832031 199.175781 L 252.25 199.175781 L 252.25 241.636719 C 252.25 247.367188 247.601562 252.015625 241.867188 252.015625 Z M 241.867188 252.015625 "/>
<path style=" stroke:none;fill-rule:nonzero;fill:rgb(83.921569%,65.882353%,53.72549%);fill-opacity:1;" d="M 220.578125 199.175781 L 220.578125 246.546875 C 220.578125 249.566406 218.128906 252.015625 215.105469 252.015625 L 241.867188 252.015625 C 247.601562 252.015625 252.25 247.367188 252.25 241.636719 L 252.25 199.175781 Z M 220.578125 199.175781 "/>
<path style=" stroke:none;fill-rule:nonzero;fill:rgb(100%,86.666667%,80.784314%);fill-opacity:1;" d="M 79.664062 185.128906 L 79.664062 162.300781 L 51.261719 162.300781 L 51.261719 185.128906 C 51.261719 192.972656 65.464844 193.667969 65.464844 193.667969 C 65.464844 193.667969 79.664062 192.972656 79.664062 185.128906 Z M 79.664062 185.128906 "/>
<path style=" stroke:none;fill-rule:nonzero;fill:rgb(25.098039%,43.921569%,57.647059%);fill-opacity:1;" d="M 106.074219 141.582031 C 104.214844 135.386719 103.273438 128.953125 103.269531 122.484375 L 103.269531 122.46875 C 103.261719 101.597656 86.34375 84.679688 65.46875 84.679688 C 44.597656 84.679688 27.675781 101.597656 27.671875 122.46875 L 27.671875 122.484375 C 27.667969 128.953125 26.722656 135.386719 24.867188 141.582031 C 23.734375 145.351562 23.160156 149.265625 23.160156 153.199219 C 23.15625 160.316406 27.664062 166.652344 34.386719 168.984375 C 54.519531 175.976562 76.421875 175.976562 96.554688 168.984375 C 103.277344 166.652344 107.78125 160.316406 107.78125 153.199219 C 107.777344 149.265625 107.203125 145.351562 106.074219 141.582031 Z M 106.074219 141.582031 "/>
<path style=" stroke:none;fill-rule:nonzero;fill:rgb(21.176471%,36.862745%,49.019608%);fill-opacity:1;" d="M 106.074219 141.582031 C 104.214844 135.386719 103.273438 128.953125 103.269531 122.484375 L 103.269531 122.46875 C 103.261719 101.597656 86.34375 84.679688 65.46875 84.679688 C 59.820312 84.679688 54.46875 85.925781 49.652344 88.148438 C 62.625 94.132812 71.632812 107.246094 71.636719 122.46875 L 71.636719 122.484375 C 71.640625 128.953125 72.585938 135.386719 74.441406 141.582031 C 75.570312 145.351562 76.144531 149.265625 76.148438 153.199219 C 76.148438 160.316406 71.644531 166.652344 64.921875 168.984375 C 59.921875 170.722656 54.816406 172.023438 49.652344 172.898438 C 65.285156 175.542969 81.417969 174.242188 96.554688 168.984375 C 103.277344 166.652344 107.78125 160.316406 107.78125 153.199219 C 107.777344 149.265625 107.203125 145.351562 106.074219 141.582031 Z M 106.074219 141.582031 "/>
<path style=" stroke:none;fill-rule:nonzero;fill:rgb(79.607843%,88.627451%,100%);fill-opacity:1;" d="M 31.925781 3.753906 L 128.671875 3.753906 C 134.746094 3.753906 139.671875 8.679688 139.671875 14.757812 L 139.671875 56.265625 C 139.671875 61.558594 135.933594 65.976562 130.953125 67.027344 C 130.226562 67.179688 129.714844 67.839844 129.714844 68.585938 L 129.714844 82.832031 C 129.714844 84.558594 127.625 85.425781 126.402344 84.203125 L 109.933594 67.734375 C 109.632812 67.433594 109.226562 67.265625 108.800781 67.265625 L 31.925781 67.265625 C 25.847656 67.265625 20.921875 62.339844 20.921875 56.265625 L 20.921875 14.757812 C 20.921875 8.679688 25.847656 3.753906 31.925781 3.753906 Z M 31.925781 3.753906 "/>
<path style=" stroke:none;fill-rule:nonzero;fill:rgb(74.509804%,84.705882%,98.431373%);fill-opacity:1;" d="M 128.671875 3.753906 L 96.777344 3.753906 C 102.855469 3.753906 107.78125 8.679688 107.78125 14.757812 L 107.78125 56.265625 C 107.78125 61.558594 104.039062 65.976562 99.0625 67.027344 C 98.859375 67.070312 98.675781 67.15625 98.511719 67.265625 L 108.800781 67.265625 C 109.226562 67.265625 109.632812 67.433594 109.933594 67.734375 L 126.402344 84.203125 C 127.625 85.425781 129.714844 84.558594 129.714844 82.828125 L 129.714844 68.585938 C 129.714844 67.839844 130.226562 67.179688 130.953125 67.027344 C 135.933594 65.976562 139.671875 61.558594 139.671875 56.265625 L 139.671875 14.757812 C 139.671875 8.679688 134.746094 3.753906 128.671875 3.753906 Z M 128.671875 3.753906 "/>
<path style=" stroke:none;fill-rule:nonzero;fill:rgb(88.627451%,50.196078%,52.54902%);fill-opacity:1;" d="M 111.554688 185.574219 L 79.664062 179.503906 C 74.527344 192.285156 56.429688 192.277344 51.296875 179.492188 L 51.261719 179.410156 L 19.386719 185.574219 C 10.117188 188.296875 3.75 196.800781 3.75 206.460938 L 3.75 241.863281 C 3.75 247.605469 8.410156 252.257812 14.152344 252.246094 L 122.476562 252.023438 C 125.082031 252.019531 127.191406 249.90625 127.191406 247.304688 L 127.191406 206.457031 C 127.191406 196.800781 120.824219 188.296875 111.554688 185.574219 Z M 111.554688 185.574219 "/>
<path style=" stroke:none;fill-rule:nonzero;fill:rgb(86.666667%,38.823529%,43.137255%);fill-opacity:1;" d="M 122.503906 252.054688 C 125.097656 252.03125 127.191406 249.925781 127.191406 247.332031 L 127.191406 206.460938 C 127.191406 196.800781 120.824219 188.296875 111.554688 185.574219 L 79.664062 179.503906 C 77.109375 185.863281 71.34375 189.054688 65.566406 189.082031 C 66.144531 193.617188 69.570312 197.355469 74.160156 198.226562 L 79.921875 199.324219 C 90.125 201.515625 95.558594 206.179688 95.558594 215.839844 L 95.558594 252.265625 Z M 122.503906 252.054688 "/>
<path style=" stroke:none;fill-rule:nonzero;fill:rgb(88.627451%,50.196078%,52.54902%);fill-opacity:1;" d="M 197.582031 154.835938 L 189.089844 147.578125 L 180.058594 155.125 C 179.476562 155.609375 178.792969 155.902344 178.089844 156.007812 L 183.480469 165.265625 L 194.058594 165.265625 L 199.390625 155.710938 C 198.742188 155.582031 198.117188 155.296875 197.582031 154.835938 Z M 197.582031 154.835938 "/>
<path style=" stroke:none;fill-rule:nonzero;fill:rgb(0%,0%,0%);fill-opacity:1;" d="M 31.925781 71.015625 L 107.910156 71.015625 L 123.75 86.855469 C 124.84375 87.945312 126.289062 88.523438 127.769531 88.523438 C 128.503906 88.523438 129.246094 88.382812 129.953125 88.089844 C 132.085938 87.203125 133.464844 85.140625 133.464844 82.832031 L 133.464844 70.214844 C 139.328125 68.195312 143.425781 62.589844 143.425781 56.265625 L 143.425781 14.757812 C 143.425781 6.621094 136.808594 0.00390625 128.671875 0.00390625 L 31.925781 0.00390625 C 23.789062 0.00390625 17.175781 6.621094 17.175781 14.757812 L 17.175781 17.785156 C 17.175781 19.859375 18.851562 21.535156 20.925781 21.535156 C 22.996094 21.535156 24.675781 19.859375 24.675781 17.785156 L 24.675781 14.757812 C 24.675781 10.757812 27.925781 7.503906 31.925781 7.503906 L 128.671875 7.503906 C 132.671875 7.503906 135.925781 10.757812 135.925781 14.757812 L 135.925781 56.265625 C 135.925781 59.671875 133.507812 62.65625 130.183594 63.359375 C 127.738281 63.871094 125.964844 66.074219 125.964844 68.585938 L 125.964844 78.464844 L 112.589844 65.085938 C 111.578125 64.074219 110.234375 63.515625 108.800781 63.515625 L 31.925781 63.515625 C 27.925781 63.515625 24.675781 60.261719 24.675781 56.265625 L 24.675781 35.347656 C 24.675781 33.277344 22.996094 31.597656 20.925781 31.597656 C 18.851562 31.597656 17.175781 33.277344 17.175781 35.347656 L 17.175781 56.265625 C 17.175781 64.398438 23.789062 71.015625 31.925781 71.015625 Z M 31.925781 71.015625 "/>
<path style=" stroke:none;fill-rule:nonzero;fill:rgb(0%,0%,0%);fill-opacity:1;" d="M 252.25 172.96875 C 254.320312 172.96875 256 171.289062 256 169.21875 L 256 166.332031 C 256 154.816406 248.28125 144.503906 237.230469 141.261719 L 216.898438 135.289062 C 216.3125 134.753906 215.636719 134.308594 214.890625 133.976562 L 210.652344 132.085938 C 209.519531 131.582031 208.324219 131.328125 207.132812 131.3125 L 207.132812 122.390625 C 213.777344 117.484375 218.421875 109.980469 219.496094 101.339844 C 222.859375 100.390625 225.328125 97.296875 225.328125 93.636719 L 225.328125 66.800781 C 225.328125 60.515625 220.398438 55.359375 214.203125 54.992188 C 213.695312 48.933594 208.601562 44.164062 202.417969 44.164062 L 174.574219 44.164062 C 162.253906 44.164062 152.230469 54.1875 152.230469 66.507812 L 152.230469 93.636719 C 152.230469 97.296875 154.699219 100.390625 158.0625 101.339844 C 159.140625 109.980469 163.78125 117.484375 170.425781 122.390625 L 170.425781 131.296875 C 169.246094 131.320312 168.0625 131.578125 166.945312 132.078125 L 162.789062 133.945312 C 162.046875 134.277344 161.378906 134.722656 160.796875 135.257812 L 140.339844 141.261719 C 129.289062 144.503906 121.570312 154.816406 121.570312 166.335938 L 121.570312 186.699219 C 118.960938 184.566406 115.925781 182.949219 112.613281 181.976562 C 112.28125 181.882812 114.203125 182.269531 83.414062 176.402344 L 83.414062 176.320312 C 88.28125 175.425781 93.085938 174.160156 97.785156 172.53125 C 108.195312 168.914062 114.972656 158.203125 109.664062 140.507812 C 107.910156 134.65625 107.023438 128.589844 107.019531 122.46875 C 107.011719 99.5625 88.375 80.929688 65.46875 80.929688 C 42.566406 80.929688 23.925781 99.5625 23.917969 122.484375 C 23.917969 128.59375 23.027344 134.65625 21.273438 140.507812 C 16.023438 158.027344 22.589844 168.859375 33.15625 172.53125 C 37.847656 174.160156 42.652344 175.421875 47.511719 176.316406 C 16.855469 182.253906 18.648438 181.882812 18.328125 181.976562 C 7.535156 185.144531 0 195.210938 0 206.460938 L 0 241.863281 C 0 249.691406 6.339844 255.996094 14.132812 255.996094 L 14.160156 255.996094 C 14.222656 255.996094 241.804688 255.765625 241.871094 255.765625 C 249.660156 255.765625 256 249.425781 256 241.636719 L 256 186.75 C 256 184.679688 254.320312 183 252.25 183 C 250.179688 183 248.5 184.679688 248.5 186.75 L 248.5 195.425781 L 204.667969 195.425781 L 198.03125 165.84375 L 201.621094 159.410156 C 203.046875 159.132812 204.410156 158.453125 205.539062 157.371094 L 217.0625 146.148438 C 217.800781 145.429688 218.371094 144.578125 218.753906 143.652344 L 235.117188 148.457031 C 242.996094 150.769531 248.5 158.121094 248.5 166.332031 L 248.5 169.21875 C 248.5 171.289062 250.179688 172.96875 252.25 172.96875 Z M 159.730469 66.507812 C 159.730469 58.320312 166.390625 51.664062 174.574219 51.664062 L 202.417969 51.664062 C 204.804688 51.664062 206.746094 53.605469 206.746094 55.992188 C 206.746094 59.5625 209.652344 62.46875 213.226562 62.46875 L 213.496094 62.46875 C 215.882812 62.46875 217.828125 64.410156 217.828125 66.800781 L 217.828125 80.691406 L 215.992188 80.691406 C 214.960938 80.691406 214.121094 79.851562 214.121094 78.820312 L 214.121094 75.742188 C 214.121094 69.117188 207.617188 64.492188 201.398438 66.546875 C 193.265625 69.238281 184.304688 69.238281 176.160156 66.546875 C 169.886719 64.472656 163.4375 69.136719 163.4375 75.742188 L 163.4375 78.820312 C 163.4375 79.851562 162.597656 80.691406 161.566406 80.691406 L 159.734375 80.691406 L 159.734375 66.507812 Z M 165.367188 98.972656 C 165.195312 96.261719 162.941406 94.136719 160.234375 94.136719 C 159.957031 94.136719 159.730469 93.914062 159.730469 93.636719 L 159.730469 88.191406 L 161.5625 88.191406 C 166.730469 88.191406 170.9375 83.988281 170.9375 78.820312 L 170.9375 75.742188 C 170.9375 74.257812 172.378906 73.199219 173.816406 73.671875 C 183.46875 76.859375 194.101562 76.859375 203.753906 73.667969 C 205.167969 73.199219 206.621094 74.253906 206.621094 75.742188 L 206.621094 78.820312 C 206.621094 83.988281 210.824219 88.191406 215.992188 88.191406 L 217.828125 88.191406 L 217.828125 93.632812 C 217.828125 93.910156 217.601562 94.136719 217.324219 94.136719 C 214.617188 94.136719 212.359375 96.261719 212.1875 98.972656 C 211.414062 111.289062 201.128906 120.933594 188.777344 120.933594 C 176.429688 120.9375 166.144531 111.289062 165.367188 98.972656 Z M 191.859375 161.515625 L 185.636719 161.515625 L 183.222656 157.367188 L 189.0625 152.488281 L 194.363281 157.023438 Z M 196.980469 195.425781 L 180.558594 195.425781 L 186.484375 169.015625 L 191.054688 169.015625 Z M 189.050781 142.867188 L 177.925781 134.554688 L 177.925781 126.46875 C 181.3125 127.742188 184.972656 128.433594 188.78125 128.433594 C 192.589844 128.433594 196.246094 127.742188 199.632812 126.46875 L 199.632812 134.675781 Z M 170.019531 138.917969 C 170.488281 138.707031 171.035156 138.769531 171.449219 139.078125 C 175.167969 141.859375 177.660156 143.71875 183.046875 147.742188 L 177.65625 152.246094 C 177.628906 152.269531 177.597656 152.28125 177.566406 152.292969 C 177.550781 152.292969 177.535156 152.296875 177.515625 152.296875 C 177.460938 152.300781 177.402344 152.28125 177.359375 152.242188 L 165.902344 140.769531 Z M 35.617188 165.445312 C 26.136719 162.152344 25.585938 152.234375 28.457031 142.660156 C 30.421875 136.109375 31.417969 129.324219 31.421875 122.46875 C 31.425781 103.699219 46.699219 88.429688 65.46875 88.429688 C 84.238281 88.429688 99.515625 103.699219 99.519531 122.484375 C 99.523438 129.320312 100.519531 136.109375 102.484375 142.660156 C 105.351562 152.238281 104.804688 162.152344 95.324219 165.445312 C 76.074219 172.128906 54.867188 172.128906 35.617188 165.445312 Z M 75.914062 177.40625 L 75.914062 178.730469 C 71.808594 187.570312 59.0625 187.535156 55.011719 178.648438 L 55.011719 177.402344 C 61.878906 178.128906 68.882812 178.148438 75.914062 177.40625 Z M 123.441406 247.304688 C 123.441406 247.824219 123.03125 248.246094 122.511719 248.269531 C 122.496094 248.269531 122.484375 248.269531 122.472656 248.269531 C 122.46875 248.269531 122.464844 248.269531 122.464844 248.273438 C 122.4375 248.273438 122.40625 248.273438 122.378906 248.277344 L 14.144531 248.496094 L 14.132812 248.496094 C 10.480469 248.496094 7.5 245.539062 7.5 241.863281 L 7.5 206.460938 C 7.5 198.574219 12.746094 191.511719 20.28125 189.222656 L 49.167969 183.636719 C 56.433594 195.914062 74.472656 195.878906 81.75 183.71875 L 110.667969 189.222656 C 118.414062 191.578125 123.441406 198.699219 123.441406 206.457031 Z M 129.070312 166.332031 C 129.070312 158.121094 134.574219 150.769531 142.453125 148.457031 L 158.949219 143.617188 C 159.316406 144.507812 159.859375 145.332031 160.5625 146.035156 L 172.082031 157.570312 C 172.09375 157.582031 172.105469 157.59375 172.117188 157.609375 C 173.191406 158.652344 174.492188 159.328125 175.859375 159.625 L 179.5 165.878906 L 172.875 195.421875 L 129.070312 195.421875 Z M 248.5 202.925781 L 248.5 241.636719 C 248.5 245.289062 245.527344 248.265625 241.867188 248.265625 L 130.886719 248.265625 C 130.921875 247.949219 130.941406 247.628906 130.941406 247.304688 L 130.941406 206.460938 C 130.941406 205.273438 130.859375 204.09375 130.695312 202.925781 C 147.15625 202.925781 222.574219 202.925781 248.5 202.925781 Z M 200.324219 151.976562 C 200.277344 152.019531 200.222656 152.042969 200.167969 152.042969 C 200.136719 152.035156 200.109375 152.03125 200.078125 152.023438 C 200.054688 152.015625 200.035156 152.003906 200.015625 151.988281 L 195.03125 147.722656 L 206.152344 139.109375 C 206.566406 138.789062 207.121094 138.722656 207.597656 138.9375 L 211.796875 140.808594 Z M 200.324219 151.976562 "/>
</g>
</svg>
